<?xml version="1.0" encoding="UTF-8"?>
<svg xmlns="http://www.w3.org/2000/svg" xmlns:svg="http://www.w3.org/2000/svg" xmlns:xlink="http://www.w3.org/1999/xlink" width="759" height="950" viewBox="0 0 759 950" preserveAspectRatio="xMidYMid meet">
	<g transform="matrix(1, 0, 0, 1, 379.5, 475)">
		<path transform="matrix(1, 0, 0, 1, 210, -472.5)" d="M0,0 L11,0 L19,6 L30,14 L35,19 L42,26 L53,35 L58,40 L74,52 L87,63 L100,73 L111,82 L123,94 L134,103 L142,110 L145,111 L145,113 L151,115 L163,126 L167,132 L167,142 L162,157 L155,163 L151,166 L147,176 L142,183 L138,192 L133,197 L128,201 L123,208 L98,218 L84,225 L76,232 L57,237 L49,239 L38,247 L30,254 L16,269 L8,276 L1,282 L-12,292 L-24,299 L-30,306 L-34,312 L-40,321 L-47,329 L-53,338 L-64,349 L-75,358 L-84,369 L-91,379 L-99,384 L-113,391 L-118,397 L-123,408 L-128,413 L-135,426 L-144,435 L-154,441 L-164,452 L-172,459 L-175,462 L-184,464 L-191,470 L-197,478 L-205,489 L-212,497 L-218,501 L-227,510 L-232,515 L-235,523 L-240,533 L-243,538 L-249,552 L-252,557 L-254,567 L-264,569 L-266,574 L-268,582 L-267,598 L-260,645 L-257,668 L-254,687 L-253,716 L-252,729 L-261,756 L-267,768 L-274,774 L-293,786 L-299,790 L-313,797 L-324,814 L-337,836 L-344,845 L-351,853 L-368,864 L-384,872 L-400,880 L-419,889 L-429,898 L-438,907 L-447,918 L-461,932 L-463,932 L-465,936 L-475,944 L-482,945 L-486,937 L-493,911 L-498,895 L-501,885 L-506,872 L-511,860 L-520,829 L-528,803 L-535,774 L-542,756 L-546,753 L-551,751 L-556,743 L-561,732 L-570,715 L-578,699 L-586,686 L-587,682 L-582,677 L-571,667 L-564,661 L-562,661 L-560,657 L-554,652 L-549,647 L-542,640 L-540,640 L-538,636 L-534,634 L-532,630 L-525,622 L-514,611 L-506,605 L-495,594 L-486,583 L-474,571 L-469,567 L-464,562 L-456,554 L-446,540 L-441,535 L-429,522 L-420,510 L-414,501 L-404,494 L-393,488 L-378,474 L-368,463 L-361,455 L-353,447 L-345,440 L-340,436 L-333,428 L-319,413 L-312,404 L-301,394 L-292,383 L-285,373 L-279,363 L-270,352 L-261,341 L-254,334 L-246,324 L-236,312 L-227,301 L-219,291 L-214,286 L-209,282 L-201,275 L-190,263 L-177,245 L-174,244 L-172,239 L-164,228 L-157,218 L-150,207 L-143,199 L-134,188 L-126,179 L-119,169 L-109,155 L-100,141 L-91,133 L-83,122 L-76,113 L-72,106 L-64,94 L-55,82 L-48,74 L-39,60 L-33,50 L-26,38 L-19,26 L-10,16 L-2,2 L0,0 L0,0 L0,0 Z" style="fill:#000000;stroke:#FFFFFF;stroke-linecap:butt;stroke-linejoin:miter;stroke-miterlimit:4;stroke-width:5;" />
	</g>
</svg>